<?xml version="1.0" encoding="UTF-8"?>
<!DOCTYPE svg PUBLIC "-//W3C//DTD SVG 1.1//EN" "http://www.w3.org/Graphics/SVG/1.1/DTD/svg11.dtd">
<!-- Creator: CorelDRAW 2019 (64 Bit) -->
<svg xmlns="http://www.w3.org/2000/svg" xml:space="preserve" width="512px" height="131px" version="1.1" shape-rendering="geometricPrecision" text-rendering="geometricPrecision" image-rendering="optimizeQuality" fill-rule="evenodd" clip-rule="evenodd"
viewBox="0 0 466.47 119.59"
 xmlns:xlink="http://www.w3.org/1999/xlink">
 <g id="Camada_x0020_1">
  <g id="_2106343301600">
   <path fill="#141414" stroke="#E6E7E8" stroke-width="0.59" stroke-miterlimit="22.9256" d="M169.46 84.13c-4.02,5.31 -10.08,8.41 -16.62,8.41l-2.88 0c-11.74,0 -21.28,-10.06 -21.28,-22.43l0 -3.19c0,-10.73 8.3,-19.46 18.5,-19.46l19.7 0 0 9.97 -19.7 0c-4.8,0 -8.7,4.26 -8.7,9.49l0 3.2c0,6.87 5.16,12.45 11.48,12.45l2.88 0c3.12,0 6.05,-1.36 8.19,-3.72l8.43 5.28zm47.4 -17.39l0 3.21c0,12.37 -10.37,22.43 -23.12,22.43l-3.2 0c-12.75,0 -23.12,-10.06 -23.12,-22.43l0 -3.21c0,-10.72 8.98,-19.45 20.02,-19.45l9.4 0c11.04,0 20.02,8.73 20.02,19.45zm-9.8 3.21l0 -3.21c0,-5.32 -4.59,-9.64 -10.22,-9.64l-9.4 0c-5.64,0 -10.22,4.33 -10.22,9.64l0 3.21c0,6.96 5.98,12.63 13.32,12.63l3.2 0c7.35,0 13.33,-5.66 13.32,-12.63l0 0zm20.85 -22.43l37.26 0c11.32,0 20.53,8.72 20.53,19.45l0 25.3 -9.81 0 0 -25.3c0,-5.32 -4.81,-9.65 -10.72,-9.65l-10.13 0c0,0 3.44,1.89 3.3,9.65 -0.12,6.39 0,25.3 0,25.3l-9.8 0 0 -25.3c0,-5.32 -4.81,-9.65 -10.72,-9.65l-9.91 0 0 34.95 -9.8 0 0 -44.83 9.8 0.08zm105.01 19.45l0 3.16c0,12.02 -9.35,21.45 -21.28,21.45l-2.88 0c-4.14,0 -7.76,-1.51 -11.49,-3.12l0 27.99 -9.8 0 0 -69 26.95 0c10.03,-0.01 18.5,8.94 18.5,19.52zm-9.8 -0.5c0,-5.24 -3.9,-9.5 -8.69,-9.5l-17.15 0 0 12.65c0,6.85 5.15,12.43 11.49,12.43l2.87 0c6.34,0 11.49,-5.57 11.49,-12.43l0 -3.15 -0.01 0zm55.92 -18.99l0 44.79 -9.8 0 0 -2.89 -3.3 1.46c-2.6,1.15 -5.35,1.73 -8.19,1.73l-2.87 0c-11.73,0 -21.29,-10.06 -21.29,-22.43l0 -3.21c0,-10.73 8.3,-19.45 18.51,-19.45l17.14 0 0 0 9.8 0zm-9.8 9.8l-17.14 0c-4.8,0 -8.7,4.32 -8.7,9.64l0 3.22c0,6.96 5.15,12.62 11.49,12.62l2.87 0c6.33,0 11.49,-5.66 11.49,-12.62l0 -12.86 -0.01 0zm52.93 9.42l0 25.57 -9.81 0 0 -25.57c0,-5.19 -4.81,-9.41 -10.72,-9.41l-9.91 0 0 34.97 -9.8 0 0 -44.78 9.8 0 0 0 9.91 0c11.32,0.01 20.53,8.63 20.53,19.22zm44.01 -19.27l0 49.44c0,12.36 -9.06,22.43 -20.19,22.43l-0.52 0c-10.42,0 -19.02,-8.82 -20.08,-20.09l9.88 0c0.88,5.27 4.77,10.29 10.46,10.29 0.48,0 0.96,-0.04 1.46,-0.11 5.96,-0.89 9.19,-7.12 9.19,-12.53l0 -7.92 -3.25 1.35c-2.32,0.96 -4.73,1.45 -7.14,1.45l-2.68 0c-11.13,0 -20.19,-9.89 -20.19,-22.03l0 -22.28 9.81 0 0 22.28c0,6.74 4.66,12.23 10.39,12.23l2.68 0c5.72,0 10.38,-5.49 10.38,-12.23l0 -22.28 9.8 0 0 0z"/>
   <path fill="#141414" d="M210.2 38.38c-0.99,0 -1.81,-0.16 -2.48,-0.47 -0.67,-0.31 -1.21,-0.72 -1.61,-1.22 -0.41,-0.5 -0.7,-1.05 -0.88,-1.66 -0.18,-0.61 -0.27,-1.21 -0.27,-1.79l0 -0.07c0,-0.58 0.09,-1.18 0.27,-1.79 0.18,-0.61 0.47,-1.16 0.88,-1.66 0.4,-0.5 0.94,-0.91 1.61,-1.22 0.67,-0.31 1.49,-0.47 2.48,-0.47 0.72,0 1.36,0.08 1.92,0.24 0.56,0.15 1.03,0.38 1.43,0.65 0.4,0.28 0.72,0.6 0.97,0.95 0.24,0.37 0.42,0.75 0.51,1.15l-1.69 0c-0.05,-0.3 -0.16,-0.56 -0.35,-0.76 -0.18,-0.21 -0.41,-0.38 -0.7,-0.51 -0.29,-0.15 -0.61,-0.24 -0.97,-0.31 -0.35,-0.06 -0.73,-0.09 -1.12,-0.09 -0.51,0 -0.98,0.09 -1.43,0.26 -0.43,0.17 -0.81,0.42 -1.13,0.75 -0.31,0.33 -0.56,0.74 -0.73,1.22 -0.18,0.49 -0.27,1.05 -0.27,1.66 0,0.6 0.09,1.14 0.27,1.61 0.17,0.48 0.42,0.88 0.73,1.2 0.32,0.33 0.7,0.58 1.13,0.75 0.44,0.18 0.92,0.26 1.43,0.26 0.4,0 0.77,-0.03 1.12,-0.09 0.36,-0.06 0.68,-0.17 0.97,-0.3 0.28,-0.14 0.52,-0.31 0.7,-0.52 0.19,-0.22 0.3,-0.46 0.35,-0.75l1.69 0c-0.09,0.39 -0.26,0.77 -0.51,1.13 -0.25,0.36 -0.57,0.68 -0.97,0.95 -0.4,0.28 -0.87,0.5 -1.43,0.66 -0.56,0.16 -1.2,0.24 -1.92,0.24zm10.34 -10.17l1.67 0 0 10.07 -1.67 0 0 -10.07zm11.82 10.17c-0.52,0 -1.03,-0.05 -1.54,-0.16 -0.51,-0.11 -0.98,-0.29 -1.4,-0.52 -0.42,-0.24 -0.77,-0.55 -1.04,-0.93 -0.28,-0.37 -0.43,-0.81 -0.46,-1.33l1.7 0c0.04,0.36 0.17,0.64 0.38,0.85 0.21,0.22 0.46,0.38 0.74,0.5 0.27,0.11 0.56,0.19 0.86,0.22 0.29,0.03 0.55,0.05 0.77,0.05 0.46,0 0.87,-0.02 1.24,-0.05 0.37,-0.03 0.68,-0.09 0.94,-0.19 0.26,-0.11 0.46,-0.26 0.6,-0.48 0.13,-0.21 0.21,-0.51 0.21,-0.88 0,-0.28 -0.13,-0.5 -0.39,-0.68 -0.26,-0.18 -0.57,-0.33 -0.92,-0.44 -0.35,-0.12 -0.7,-0.21 -1.05,-0.28 -0.36,-0.06 -0.64,-0.12 -0.85,-0.17 -0.47,-0.09 -0.95,-0.2 -1.47,-0.34 -0.51,-0.12 -0.98,-0.31 -1.39,-0.55 -0.42,-0.23 -0.77,-0.53 -1.05,-0.9 -0.28,-0.37 -0.41,-0.83 -0.41,-1.38 0,-0.4 0.08,-0.77 0.23,-1.1 0.16,-0.33 0.41,-0.61 0.77,-0.85 0.35,-0.23 0.81,-0.42 1.38,-0.55 0.57,-0.13 1.28,-0.2 2.11,-0.2 0.5,0 1.01,0.05 1.52,0.15 0.5,0.1 0.96,0.25 1.37,0.47 0.42,0.22 0.76,0.51 1.04,0.87 0.27,0.36 0.43,0.81 0.48,1.34l-1.63 0c-0.01,-0.31 -0.1,-0.56 -0.27,-0.75 -0.16,-0.19 -0.38,-0.34 -0.64,-0.46 -0.27,-0.12 -0.56,-0.19 -0.89,-0.23 -0.32,-0.05 -0.65,-0.06 -0.97,-0.06 -0.62,0 -1.11,0.04 -1.48,0.13 -0.37,0.08 -0.65,0.19 -0.85,0.33 -0.2,0.14 -0.33,0.29 -0.4,0.45 -0.06,0.16 -0.09,0.32 -0.09,0.47 0,0.25 0.08,0.47 0.24,0.64 0.16,0.18 0.39,0.34 0.68,0.48 0.31,0.13 0.67,0.25 1.09,0.36 0.43,0.1 0.9,0.21 1.41,0.31 0.45,0.08 0.92,0.19 1.41,0.32 0.48,0.14 0.92,0.32 1.32,0.54 0.4,0.22 0.73,0.48 0.99,0.81 0.25,0.32 0.38,0.71 0.38,1.17 0,0.98 -0.36,1.73 -1.07,2.25 -0.73,0.52 -1.93,0.77 -3.6,0.77zm23.08 -10.17l3.79 10.07 -1.77 0 -0.9 -2.35 -4.92 0 -0.9 2.35 -1.78 0 3.79 -10.07 2.69 0zm-3.3 6.39l3.92 0 -1.96 -5.17 -1.96 5.17zm15.93 3.78c-0.52,0 -1.03,-0.05 -1.54,-0.16 -0.51,-0.11 -0.98,-0.29 -1.4,-0.52 -0.42,-0.24 -0.77,-0.55 -1.04,-0.93 -0.28,-0.37 -0.43,-0.81 -0.46,-1.33l1.7 0c0.04,0.36 0.17,0.64 0.39,0.85 0.2,0.22 0.45,0.38 0.73,0.5 0.27,0.11 0.56,0.19 0.86,0.22 0.29,0.03 0.56,0.05 0.77,0.05 0.46,0 0.87,-0.02 1.24,-0.05 0.37,-0.03 0.68,-0.09 0.94,-0.19 0.26,-0.11 0.46,-0.26 0.6,-0.48 0.13,-0.21 0.21,-0.51 0.21,-0.88 0,-0.28 -0.13,-0.5 -0.39,-0.68 -0.26,-0.18 -0.57,-0.33 -0.92,-0.44 -0.35,-0.12 -0.7,-0.21 -1.05,-0.28 -0.36,-0.06 -0.64,-0.12 -0.84,-0.17 -0.48,-0.09 -0.96,-0.2 -1.48,-0.34 -0.51,-0.12 -0.98,-0.31 -1.39,-0.55 -0.42,-0.23 -0.77,-0.53 -1.05,-0.9 -0.27,-0.37 -0.41,-0.83 -0.41,-1.38 0,-0.4 0.08,-0.77 0.23,-1.1 0.16,-0.33 0.42,-0.61 0.77,-0.85 0.35,-0.23 0.81,-0.42 1.38,-0.55 0.58,-0.13 1.28,-0.2 2.11,-0.2 0.51,0 1.01,0.05 1.52,0.15 0.5,0.1 0.96,0.25 1.37,0.47 0.42,0.22 0.76,0.51 1.04,0.87 0.27,0.36 0.43,0.81 0.48,1.34l-1.63 0c-0.01,-0.31 -0.1,-0.56 -0.27,-0.75 -0.16,-0.19 -0.38,-0.34 -0.64,-0.46 -0.27,-0.12 -0.56,-0.19 -0.89,-0.23 -0.32,-0.05 -0.65,-0.06 -0.97,-0.06 -0.62,0 -1.11,0.04 -1.48,0.13 -0.37,0.08 -0.65,0.19 -0.85,0.33 -0.2,0.14 -0.33,0.29 -0.4,0.45 -0.06,0.16 -0.09,0.32 -0.09,0.47 0,0.25 0.08,0.47 0.24,0.64 0.16,0.18 0.39,0.34 0.69,0.48 0.3,0.13 0.66,0.25 1.08,0.36 0.43,0.1 0.9,0.21 1.42,0.31 0.44,0.08 0.91,0.19 1.4,0.32 0.48,0.14 0.92,0.32 1.32,0.54 0.4,0.22 0.73,0.48 0.99,0.81 0.25,0.32 0.38,0.71 0.38,1.17 0,0.98 -0.36,1.73 -1.07,2.25 -0.71,0.52 -1.92,0.77 -3.6,0.77zm14.53 0c-0.51,0 -1.03,-0.05 -1.54,-0.16 -0.51,-0.11 -0.98,-0.29 -1.39,-0.52 -0.42,-0.24 -0.77,-0.55 -1.05,-0.93 -0.27,-0.37 -0.43,-0.81 -0.46,-1.33l1.7 0c0.05,0.36 0.18,0.64 0.39,0.85 0.21,0.22 0.46,0.38 0.73,0.5 0.28,0.11 0.57,0.19 0.86,0.22 0.3,0.03 0.56,0.05 0.78,0.05 0.46,0 0.87,-0.02 1.24,-0.05 0.37,-0.03 0.68,-0.09 0.94,-0.19 0.25,-0.11 0.45,-0.26 0.59,-0.48 0.14,-0.21 0.21,-0.51 0.21,-0.88 0,-0.28 -0.13,-0.5 -0.39,-0.68 -0.25,-0.18 -0.56,-0.33 -0.91,-0.44 -0.35,-0.12 -0.7,-0.21 -1.06,-0.28 -0.35,-0.06 -0.64,-0.12 -0.84,-0.17 -0.47,-0.09 -0.96,-0.2 -1.47,-0.34 -0.51,-0.12 -0.98,-0.31 -1.4,-0.55 -0.42,-0.23 -0.76,-0.53 -1.04,-0.9 -0.28,-0.37 -0.41,-0.83 -0.41,-1.38 0,-0.4 0.08,-0.77 0.23,-1.1 0.15,-0.33 0.41,-0.61 0.76,-0.85 0.35,-0.24 0.82,-0.42 1.39,-0.55 0.57,-0.13 1.27,-0.2 2.11,-0.2 0.5,0 1,0.05 1.51,0.15 0.51,0.1 0.97,0.25 1.38,0.47 0.41,0.22 0.76,0.51 1.03,0.87 0.28,0.36 0.44,0.81 0.49,1.34l-1.64 0c-0.01,-0.31 -0.1,-0.56 -0.26,-0.75 -0.17,-0.19 -0.38,-0.34 -0.65,-0.46 -0.26,-0.12 -0.55,-0.19 -0.88,-0.23 -0.33,-0.05 -0.65,-0.06 -0.97,-0.06 -0.62,0 -1.11,0.04 -1.48,0.13 -0.37,0.08 -0.65,0.19 -0.86,0.33 -0.2,0.14 -0.33,0.29 -0.39,0.45 -0.07,0.16 -0.1,0.32 -0.1,0.47 0,0.25 0.08,0.47 0.24,0.64 0.16,0.18 0.4,0.34 0.69,0.48 0.3,0.13 0.66,0.25 1.09,0.36 0.42,0.1 0.89,0.21 1.41,0.31 0.45,0.08 0.92,0.19 1.4,0.32 0.49,0.14 0.93,0.32 1.33,0.54 0.4,0.22 0.72,0.48 0.98,0.81 0.26,0.32 0.39,0.71 0.39,1.17 0,0.98 -0.36,1.73 -1.08,2.25 -0.73,0.52 -1.93,0.77 -3.6,0.77zm17.58 -10.17l0 1.33 -5.65 0 0 3.11 4.57 0 0 1.33 -4.57 0 0 2.98 5.65 0 0 1.32 -7.32 0 0 -10.07 7.32 0zm9.78 10.17c-0.52,0 -1.03,-0.05 -1.54,-0.16 -0.51,-0.11 -0.98,-0.29 -1.4,-0.52 -0.41,-0.24 -0.77,-0.55 -1.04,-0.93 -0.28,-0.37 -0.43,-0.81 -0.46,-1.33l1.7 0c0.04,0.36 0.17,0.64 0.39,0.85 0.21,0.22 0.45,0.38 0.73,0.5 0.27,0.11 0.56,0.19 0.86,0.22 0.29,0.03 0.56,0.05 0.77,0.05 0.46,0 0.87,-0.02 1.24,-0.05 0.37,-0.03 0.68,-0.09 0.94,-0.19 0.26,-0.11 0.46,-0.26 0.6,-0.48 0.13,-0.21 0.21,-0.51 0.21,-0.88 0,-0.28 -0.13,-0.5 -0.39,-0.68 -0.26,-0.18 -0.56,-0.33 -0.92,-0.44 -0.35,-0.12 -0.7,-0.21 -1.05,-0.28 -0.36,-0.06 -0.64,-0.12 -0.84,-0.17 -0.48,-0.09 -0.96,-0.2 -1.48,-0.34 -0.51,-0.12 -0.97,-0.31 -1.39,-0.55 -0.42,-0.23 -0.76,-0.53 -1.05,-0.9 -0.27,-0.37 -0.41,-0.83 -0.41,-1.38 0,-0.4 0.08,-0.77 0.24,-1.1 0.15,-0.33 0.41,-0.61 0.76,-0.85 0.35,-0.24 0.81,-0.42 1.39,-0.55 0.57,-0.13 1.27,-0.2 2.1,-0.2 0.51,0 1.01,0.05 1.52,0.15 0.5,0.1 0.96,0.25 1.38,0.47 0.41,0.22 0.75,0.51 1.03,0.87 0.27,0.36 0.43,0.81 0.48,1.34l-1.63 0c-0.01,-0.31 -0.1,-0.56 -0.26,-0.75 -0.17,-0.19 -0.39,-0.34 -0.65,-0.46 -0.26,-0.12 -0.56,-0.19 -0.88,-0.23 -0.33,-0.05 -0.66,-0.06 -0.98,-0.06 -0.62,0 -1.11,0.04 -1.48,0.13 -0.36,0.08 -0.65,0.19 -0.85,0.33 -0.2,0.14 -0.33,0.29 -0.4,0.45 -0.06,0.16 -0.09,0.32 -0.09,0.47 0,0.25 0.08,0.47 0.24,0.64 0.16,0.18 0.39,0.34 0.69,0.48 0.3,0.13 0.66,0.25 1.08,0.36 0.43,0.1 0.9,0.21 1.42,0.31 0.45,0.08 0.91,0.19 1.4,0.32 0.48,0.14 0.93,0.32 1.32,0.54 0.4,0.22 0.73,0.48 0.99,0.81 0.26,0.32 0.38,0.71 0.38,1.17 0,0.98 -0.36,1.73 -1.07,2.25 -0.71,0.52 -1.92,0.77 -3.6,0.77zm14.53 0c-0.51,0 -1.03,-0.05 -1.54,-0.16 -0.51,-0.11 -0.97,-0.29 -1.39,-0.52 -0.42,-0.24 -0.77,-0.55 -1.05,-0.93 -0.27,-0.37 -0.43,-0.81 -0.46,-1.33l1.7 0c0.05,0.36 0.18,0.64 0.39,0.85 0.21,0.22 0.46,0.38 0.73,0.5 0.28,0.11 0.56,0.19 0.86,0.22 0.3,0.03 0.56,0.05 0.78,0.05 0.46,0 0.87,-0.02 1.24,-0.05 0.37,-0.03 0.68,-0.09 0.94,-0.19 0.26,-0.11 0.45,-0.26 0.59,-0.48 0.14,-0.21 0.21,-0.51 0.21,-0.88 0,-0.28 -0.13,-0.5 -0.38,-0.68 -0.26,-0.18 -0.56,-0.33 -0.92,-0.44 -0.35,-0.12 -0.7,-0.21 -1.06,-0.28 -0.35,-0.06 -0.64,-0.12 -0.84,-0.17 -0.47,-0.09 -0.96,-0.2 -1.47,-0.34 -0.51,-0.12 -0.98,-0.31 -1.4,-0.55 -0.41,-0.23 -0.76,-0.53 -1.04,-0.9 -0.28,-0.37 -0.41,-0.83 -0.41,-1.38 0,-0.4 0.08,-0.77 0.23,-1.1 0.15,-0.33 0.41,-0.61 0.76,-0.85 0.36,-0.23 0.82,-0.42 1.39,-0.55 0.57,-0.13 1.27,-0.2 2.11,-0.2 0.5,0 1.01,0.05 1.51,0.15 0.51,0.1 0.97,0.25 1.38,0.47 0.41,0.22 0.76,0.51 1.03,0.87 0.28,0.36 0.44,0.81 0.49,1.34l-1.64 0c-0.01,-0.31 -0.09,-0.56 -0.26,-0.75 -0.17,-0.19 -0.38,-0.34 -0.64,-0.46 -0.27,-0.12 -0.56,-0.19 -0.89,-0.23 -0.33,-0.05 -0.65,-0.06 -0.97,-0.06 -0.62,0 -1.11,0.04 -1.48,0.13 -0.37,0.08 -0.65,0.19 -0.85,0.33 -0.21,0.14 -0.34,0.29 -0.4,0.45 -0.07,0.16 -0.1,0.32 -0.1,0.47 0,0.25 0.08,0.47 0.24,0.64 0.16,0.18 0.4,0.34 0.69,0.48 0.3,0.13 0.67,0.25 1.09,0.36 0.42,0.1 0.9,0.21 1.41,0.31 0.45,0.08 0.92,0.19 1.4,0.32 0.49,0.14 0.93,0.32 1.33,0.54 0.4,0.22 0.72,0.48 0.98,0.81 0.26,0.32 0.39,0.71 0.39,1.17 0,0.98 -0.36,1.73 -1.08,2.25 -0.71,0.52 -1.92,0.77 -3.6,0.77zm19.15 -10.17l2.91 0c0.07,1.07 0.13,1.99 0.18,2.77 0.04,0.78 0.08,1.46 0.12,2.04 0.04,0.58 0.07,1.09 0.09,1.53 0.03,0.44 0.06,0.86 0.09,1.25 0.03,0.39 0.06,0.78 0.09,1.17 0.03,0.39 0.07,0.83 0.1,1.31l-1.72 0c-0.09,-1.47 -0.18,-2.93 -0.28,-4.38 -0.1,-1.45 -0.19,-2.91 -0.28,-4.36l-3.17 8.74 -2.06 0 -3.17 -8.74c-0.1,1.45 -0.19,2.91 -0.29,4.36 -0.1,1.45 -0.19,2.91 -0.28,4.38l-1.72 0c0.04,-0.49 0.08,-0.93 0.11,-1.32 0.03,-0.38 0.06,-0.77 0.09,-1.16 0.03,-0.39 0.05,-0.8 0.08,-1.24 0.03,-0.45 0.06,-0.96 0.09,-1.53 0.04,-0.58 0.08,-1.26 0.13,-2.04 0.05,-0.78 0.11,-1.71 0.17,-2.77l2.91 0 2.91 8.21 2.9 -8.22zm16.58 0l0 1.33 -5.64 0 0 3.11 4.56 0 0 1.33 -4.56 0 0 2.98 5.64 0 0 1.32 -7.31 0 0 -10.07 7.31 0zm7.27 1.79l0 8.28 -1.68 0 0 -10.08 2.41 0 5.41 8.11 0 -8.11 1.67 0 0 10.08 -2.3 0 -5.51 -8.28zm18.06 8.28l-1.67 0 0 -8.75 -3.32 0 0 -1.33 8.32 0 0 1.33 -3.33 0 0 8.75z"/>
   <g>
    <path fill="#141414" d="M114.58 68.57c0,9.55 -20.29,20.75 -39.34,24.9 -0.67,0.15 -1.27,-0.45 -1.13,-1.13 0.78,-3.89 1.5,-7.4 2.3,-11.35 0.08,-0.39 0.39,-0.7 0.78,-0.78 4.44,-0.89 10.27,-2.77 16.51,-6.31 3.11,-1.77 5.37,-3.43 6.53,-4.46 0.56,-0.49 0.58,-1.3 0.03,-1.81 -1.4,-1.29 -4.64,-3.34 -11.23,-5.32 -8.66,-2.6 -19.93,-4.03 -31.74,-4.03 -11.81,0 -23.07,1.43 -31.73,4.03 -6.56,1.97 -9.86,4.07 -11.28,5.38 -0.48,0.44 -0.49,1.19 -0.05,1.67 1.14,1.2 3.54,3.08 7.96,5.12 6.05,2.78 13.66,4.83 21.48,5.78 0.42,0.05 0.76,0.38 0.82,0.81 0.31,2.05 0.8,4.42 1.64,6.99 0.57,1.77 1.22,3.37 1.87,4.79 0.31,0.68 -0.24,1.44 -0.98,1.35 -1.38,-0.17 -2.76,-0.34 -4.14,-0.51 -10.39,-1.17 -20.41,-3.99 -28.24,-7.94 -12.1,-6.11 -14.64,-12.71 -14.64,-17.18 0,-5.42 3.37,-13 19.39,-18.39 10.22,-3.43 23.68,-5.32 37.9,-5.32 14.21,0 27.67,1.89 37.89,5.32 16.04,5.39 19.4,12.97 19.4,18.39zm-101.19 -0.36z"/>
   </g>
   <g>
    <path fill="#141414" d="M35.83 94.66c-0.83,-0.11 -1.47,0.72 -1.15,1.5 4.43,10.64 11.24,18.41 17.77,18.41 5.41,0 13,-3.36 18.38,-19.39 3.44,-10.22 5.33,-23.68 5.33,-37.89 0,-14.22 -1.89,-27.68 -5.33,-37.9 -5.39,-16.03 -12.97,-19.39 -18.38,-19.39 -4.5,0 -10.94,2.37 -16.12,13.63 -3.01,6.54 -5.24,19.91 -6.49,30.37 -0.09,0.76 0.58,1.4 1.33,1.26 1.39,-0.24 2.83,-0.46 4.32,-0.66 2.06,-0.27 4.04,-0.47 5.93,-0.61 0.3,-0.03 0.56,-0.18 0.71,-0.42 0.09,-0.13 0.13,-0.27 0.14,-0.34 0.01,-0.02 0.01,-0.04 0.01,-0.04 1.52,-9.67 3.61,-19.32 8.54,-27.9 0.27,-0.47 0.78,-1.29 1.45,-1.28 0.59,0 1.03,0.66 1.19,0.91 6.45,9.76 8.25,27.49 8.25,27.49 0.46,4.55 0.95,8.91 1.02,14.88 0.14,10.56 0.1,17.95 -4.03,31.73 -2.1,7.01 -4.36,10.3 -5.63,11.55 -0.35,0.33 -0.91,0.32 -1.25,-0.02 -0.46,-0.45 -1.26,-1.7 -2,-2.98 -0.4,-0.68 -1.1,-1.14 -1.88,-1.25 -4.03,-0.56 -8.07,-1.11 -12.11,-1.66z"/>
   </g>
  </g>
 </g>
</svg>
